<svg xmlns="http://www.w3.org/2000/svg" viewBox="0 0 100 100">
  <defs>
    <linearGradient id="houseGrad" x1="0%" y1="100%" x2="100%" y2="0%">
      <stop offset="0%" stop-color="#3b82f6"/>
      <stop offset="100%" stop-color="#d946ef"/>
    </linearGradient>
    <linearGradient id="pinGrad" x1="0%" y1="0%" x2="0%" y2="100%">
      <stop offset="0%" stop-color="#fb923c"/>
      <stop offset="100%" stop-color="#f97316"/>
    </linearGradient>
  </defs>

  <!-- House roof -->
  <path d="M15 52 L50 18 L85 52" fill="none" stroke="url(#houseGrad)" stroke-width="7" stroke-linejoin="round" stroke-linecap="round"/>
  <!-- House walls -->
  <path d="M22 48 L22 85 L85 85 L85 48" fill="none" stroke="url(#houseGrad)" stroke-width="7" stroke-linejoin="round" stroke-linecap="round"/>
  <!-- Window -->
  <rect x="38" y="55" width="24" height="20" rx="2" fill="none" stroke="url(#houseGrad)" stroke-width="5"/>
  <line x1="50" y1="55" x2="50" y2="75" stroke="url(#houseGrad)" stroke-width="5"/>
  <line x1="38" y1="65" x2="62" y2="65" stroke="url(#houseGrad)" stroke-width="5"/>
  <!-- Pin -->
  <path d="M72 62 C66 56 62 50 62 44 C62 34 68 28 76 28 C84 28 90 34 90 44 C90 50 86 56 80 62 L76 72 L72 62 Z" fill="url(#pinGrad)"/>
  <circle cx="76" cy="44" r="7" fill="#ffffff"/>
</svg>